<?xml version="1.0" encoding="UTF-8" standalone="no"?>
<svg
   shape-rendering="geometricPrecision"
   width="4000"
   height="4000"
   viewBox="0 0 1024 1024"
   version="1.1"
   id="svg19"
   sodipodi:docname="transparent-logo.svg"
   inkscape:version="1.3.2 (091e20e, 2023-11-25)"
   xmlns:inkscape="http://www.inkscape.org/namespaces/inkscape"
   xmlns:sodipodi="http://sodipodi.sourceforge.net/DTD/sodipodi-0.dtd"
   xmlns="http://www.w3.org/2000/svg"
   xmlns:svg="http://www.w3.org/2000/svg">
  <defs
     id="defs19" />
  <sodipodi:namedview
     id="namedview19"
     pagecolor="#ffffff"
     bordercolor="#000000"
     borderopacity="0.25"
     inkscape:showpageshadow="2"
     inkscape:pageopacity="0.0"
     inkscape:pagecheckerboard="0"
     inkscape:deskcolor="#d1d1d1"
     inkscape:zoom="0.067253562"
     inkscape:cx="1434.8682"
     inkscape:cy="669.10954"
     inkscape:window-width="1392"
     inkscape:window-height="963"
     inkscape:window-x="234"
     inkscape:window-y="30"
     inkscape:window-maximized="0"
     inkscape:current-layer="svg19" />
  <metadata
     id="metadata1">null</metadata>
  <g
     id="g22"
     transform="translate(-4.3956765,-229.20925)"
     style="fill:#000000">
    <path
       d="m 51.378,927.598 c 0.002,-0.141 0.004,-0.281 0.006,-0.422 3.125,-4.096 5.731,-8.576 8.686,-12.795 0.682,-0.275 1.559,0.924 2.14,1.369 1.876,1.433 3.821,2.855 5.85,4.067 5.917,3.537 12.993,5.718 19.927,4.616 3.364,-0.534 7.133,-1.665 8.423,-5.206 2.498,-6.859 -6.509,-9.467 -11.155,-10.94 -1.06,-0.337 -2.119,-0.666 -3.189,-0.968 -11.29,-3.195 -25.234,-6.286 -27.492,-19.966 -0.401,-2.432 -0.438,-4.952 -0.169,-7.401 1.13,-10.293 10.248,-18.028 20.056,-19.895 13.512,-2.572 27.438,0.602 38.221,9.153 -0.153,1.526 -1.439,3.151 -2.14,4.499 -1.613,3.097 -3.022,6.899 -5.219,9.616 -1.307,-0.276 -2.842,-1.992 -4.034,-2.685 -2.775,-1.613 -5.825,-2.914 -8.896,-3.844 -4.846,-1.469 -10.929,-2.442 -15.664,-0.144 -3.744,1.817 -5.155,7.255 -1.808,10.179 2.868,2.505 7.442,3.279 11.012,4.26 11.491,3.159 25.664,6.596 28.767,19.975 0.495,2.131 0.656,4.318 0.539,6.502 -0.652,12.195 -10.724,19.813 -21.928,22.111 -15.139,3.105 -30.412,-2.356 -41.933,-12.081 z"
       opacity="1"
       fill="#242a6a"
       fill-rule="evenodd"
       id="path1"
       style="fill:#000000" />
    <path
       d="m 52.238,572.221 c 6.053,-0.429 12.203,-0.17 18.272,-0.167 10.499,0.006 20.999,0.003 31.499,-0.015 4.168,-0.007 8.335,-0.006 12.503,0.058 0.83,0.012 3.449,-0.357 3.954,0.252 -0.294,5.544 0.081,11.199 0.127,16.754 0.079,9.633 0.008,19.268 0.027,28.901 0.06,30.833 0.026,61.666 0.071,92.499 0.02,13.834 0.045,27.667 0.038,41.5 -0.002,4 0.014,8 0.01,12 -0.002,1.611 -0.457,3.946 0.112,5.447 8.454,-0.645 17.172,-0.053 25.654,-0.069 17.833,-0.035 35.666,-0.006 53.499,-0.023 10.166,-0.01 20.333,-0.013 30.499,-0.012 4.681,10e-4 10.25,-0.774 14.829,0.17 -0.518,13.771 -0.005,27.703 0.032,41.49 0.014,5.318 0.459,10.904 -0.033,16.193 -14.076,0.468 -28.242,-0.074 -42.327,-0.105 -25.666,-0.056 -51.333,0.035 -77,0.01 -15.833,-0.016 -31.667,-0.029 -47.5,-0.037 -7.929,-0.003 -16.351,0.805 -24.22,-0.127 -0.4,-3.247 -0.153,-6.664 -0.163,-9.936 -0.018,-6.168 -0.027,-12.336 -0.034,-18.505 -0.024,-19.001 -0.012,-38.003 -0.022,-57.004 -0.027,-56.422 -0.111,-112.855 0.173,-169.274 z"
       opacity="1"
       fill="#252a6d"
       fill-rule="evenodd"
       id="path2"
       style="fill:#000000" />
    <path
       d="m 124.433,895.604 c 0.495,-4.681 1.962,-9.39 4.115,-13.568 3.465,-6.722 8.757,-13.009 15.352,-16.882 18.349,-10.776 43.016,-6.759 55.704,10.737 2.792,3.849 5.068,8.128 6.31,12.736 1.366,5.067 2.138,10.549 1.557,15.797 -1.025,9.258 -4.978,18.158 -11.791,24.63 -16.299,15.481 -45.344,15.86 -60.893,-0.962 -4.067,-4.4 -6.959,-9.724 -8.811,-15.392 -1.809,-5.534 -2.152,-11.328 -1.543,-17.096 z m 18.528,-0.001 c -1.429,9.607 2.067,20.456 10.719,25.674 14.089,8.499 32.563,-0.474 35.079,-16.522 1.605,-10.235 -2.677,-21.382 -11.888,-26.604 -14.304,-8.109 -31.576,1.757 -33.91,17.452 z"
       opacity="1"
       fill="#24296a"
       fill-rule="evenodd"
       id="path3"
       style="fill:#000000" />
    <path
       d="m 221.739,860.698 c 4.543,-0.882 9.652,-0.3 14.267,-0.313 9.332,-0.028 18.665,-0.033 27.997,-0.036 4.168,-0.001 8.336,0.02 12.504,0.048 1.87,0.012 4.416,-0.396 6.19,0.226 -0.201,5.219 0.068,10.461 -0.128,15.682 -2.524,0.792 -6.411,0.045 -9.065,0.046 -7.667,10e-4 -15.334,-0.013 -23,-0.003 -2.333,0.004 -4.666,0.032 -6.999,0.029 -1.167,-10e-4 -2.64,-0.195 -3.755,0.169 0.077,5.82 0.328,11.797 0.002,17.605 8.247,-0.112 16.502,-0.081 24.752,-0.125 4.805,-0.026 9.83,-0.388 14.608,0.145 -0.081,5.205 0.156,10.424 0.023,15.629 -9.199,0.248 -18.429,0.063 -27.632,0.062 -2.667,0 -5.333,0.026 -7.999,0.023 -1.28,-0.002 -2.736,-0.209 -3.945,0.257 -0.208,7.26 0.044,14.588 0.062,21.86 0.004,1.832 0.042,3.667 0.042,5.499 0,0.33 0.102,1.63 -0.136,1.833 -5.769,-0.341 -11.78,-0.117 -17.557,0.06 -0.647,-0.442 -0.21,-3.753 -0.211,-4.585 -0.007,-4.768 -0.014,-9.536 -0.011,-14.305 0.009,-19.934 -0.123,-39.873 -0.009,-59.806 z"
       opacity="1"
       fill="#252b6b"
       fill-rule="evenodd"
       id="path4"
       style="fill:#000000" />
    <path
       d="m 262.461,573.605 c 0.336,-4.177 1.406,-8.358 3.315,-12.097 3.203,-6.273 7.953,-11.485 14.077,-15.025 16.022,-9.264 38.931,-5.77 50.423,9.021 2.529,3.254 4.44,6.83 5.732,10.743 1.389,4.211 1.914,8.781 1.578,13.204 -0.66,8.662 -4.498,17.096 -10.821,23.115 -15.154,14.425 -42.089,14.228 -55.916,-1.999 -2.965,-3.479 -5.119,-7.458 -6.573,-11.778 -1.62,-4.81 -2.221,-10.129 -1.815,-15.184 z"
       opacity="1"
       fill="#252a6e"
       fill-rule="evenodd"
       id="path5"
       style="fill:#000000" />
    <path
       d="m 267.11,634.62 c 7.842,-1.266 16.463,-0.277 24.393,-0.27 13.199,0.011 26.477,-0.487 39.666,0.036 0.482,1.413 0.037,3.608 0.046,5.116 0.025,4.001 0.01,8.002 0.003,12.002 -0.023,13.334 -0.011,26.667 -0.031,40 -0.044,30.5 -0.037,61.001 0,91.501 0.012,9.832 -0.047,19.665 -0.049,29.497 -10e-4,4.608 0.802,10.046 -0.104,14.556 -21.21,0.908 -42.533,-0.679 -63.751,0.039 -0.979,-7.321 -0.19,-15.215 -0.201,-22.598 -0.022,-14.833 -0.02,-29.666 0.005,-44.5 0.072,-41.788 -0.371,-83.597 0.023,-125.379 z"
       opacity="1"
       fill="#252a6d"
       fill-rule="evenodd"
       id="path6"
       style="fill:#000000" />
    <path
       d="m 287.923,861.593 c 0.072,-0.645 0.038,-0.287 0.094,-1.076 5.292,-0.853 11.132,-0.211 16.486,-0.197 10.667,0.027 21.335,0.08 32.003,0.077 4.144,-0.002 8.289,-0.002 12.433,0.01 1.234,0.004 3.731,-0.389 4.787,0.298 0.22,5.228 -0.035,10.481 -0.125,15.704 -1.875,0.345 -4.175,0.042 -6.096,0.036 -3.833,-0.012 -7.668,-0.015 -11.501,10e-4 -1.779,0.008 -4.084,-0.373 -5.79,0.144 -0.737,14.889 -0.038,30.002 -0.042,44.912 -0.002,5.835 0.671,12.172 -0.158,17.935 -3.998,-0.054 -8.009,0.024 -12.009,0.033 -1.825,0.004 -4.063,0.287 -5.825,-0.165 -0.328,-6.294 -0.097,-12.629 -0.142,-18.931 -0.103,-14.554 -0.073,-29.117 -0.079,-43.67 -5.351,-0.341 -10.72,-0.262 -16.083,-0.266 -2.536,-10e-4 -5.31,0.285 -7.808,-0.12 -0.404,-4.727 -0.613,-9.991 -0.145,-14.725 z"
       opacity="1"
       fill="#252a6b"
       fill-rule="evenodd"
       id="path7"
       style="fill:#000000" />
    <path
       d="m 357.614,860.708 c 6.512,-0.479 13.098,0.269 19.597,-0.151 2.074,3.546 2.598,8.464 3.848,12.367 2.888,9.011 5.36,18.158 8.359,27.136 1.047,3.135 1.934,6.326 2.927,9.476 0.222,0.705 0.446,2.807 1.144,3.049 0.382,-2.527 1.597,-5.125 2.409,-7.549 1.369,-4.083 2.74,-8.166 4.11,-12.248 3.564,-10.624 6.355,-21.62 10.354,-32.081 1.409,-0.612 3.613,-0.159 5.145,-0.164 4.031,-0.013 8.066,0.102 12.092,0.096 4.428,12.725 8.299,25.804 12.187,38.72 0.976,3.242 1.971,6.474 2.97,9.707 0.223,0.724 0.49,3.162 1.21,3.447 0.966,-4.64 2.704,-9.169 4.149,-13.685 2.508,-7.839 4.802,-15.755 7.371,-23.573 1.095,-3.332 2,-6.727 3.038,-10.076 0.455,-1.471 0.736,-3.329 1.676,-4.566 6.004,-0.291 12.616,-0.609 18.6,-0.044 -5.022,16.616 -10.852,33 -16.396,49.445 -3.299,9.787 -6.274,19.963 -10.303,29.474 -0.764,0.599 -2.934,0.191 -3.889,0.189 -3.04,-0.007 -6.078,-0.028 -9.117,-0.08 -1.18,-0.019 -2.73,0.276 -3.808,-0.262 -5.008,-12.301 -8.297,-25.431 -12.547,-38.013 -1.038,-3.075 -1.984,-6.202 -2.911,-9.313 -0.203,-0.679 -0.627,-2.678 -1.382,-2.345 -1.698,7.927 -5.337,15.683 -7.907,23.374 -1.839,5.503 -3.816,10.956 -5.729,16.432 -1.169,3.348 -2.043,6.962 -3.567,10.163 -1.576,0.362 -3.526,0.041 -5.146,0.021 -3.943,-0.048 -7.982,-0.259 -11.915,-0.024 -1.243,-1.181 -1.751,-4.471 -2.299,-6.131 -1.692,-5.121 -3.439,-10.221 -5.136,-15.34 -4.742,-14.304 -9.782,-28.498 -14.275,-42.883 -1.517,-4.854 -3.921,-9.57 -4.859,-14.568 z"
       opacity="1"
       fill="#24296c"
       fill-rule="evenodd"
       id="path8"
       style="fill:#000000" />
    <path
       d="m 358.243,634.264 c 8.777,-0.404 17.65,-0.195 26.436,-0.077 -0.404,-1.528 -0.062,-3.597 -0.061,-5.182 0.001,-3.667 0.012,-7.333 0.005,-11 -0.019,-11.029 -0.711,-22.325 0.032,-33.324 0.415,-0.719 2.674,-0.423 3.479,-0.426 3.624,-0.011 7.248,-0.033 10.872,-0.035 12.168,-0.006 24.335,-0.041 36.503,-0.062 3.166,-0.005 6.332,0.055 9.498,0.017 1.05,-0.013 3.093,-0.407 3.945,0.195 -0.459,16.659 0.709,33.414 0.291,50.091 15.344,-0.282 30.721,-0.06 46.068,0.006 0.34,4.175 0.084,8.441 0.093,12.628 0.017,8.139 0.024,16.277 0.009,24.416 -0.007,3.666 0.005,7.332 -0.01,10.997 -0.004,1.277 0.333,3.3 -0.18,4.479 -3.28,0.269 -6.696,0.023 -10,0.055 -11.978,0.117 -24.103,-0.579 -36.058,0.126 0.312,20.359 0.079,40.753 0.045,61.117 -0.015,8.901 0.665,19.438 10.091,23.556 9.891,4.322 19.368,-1.353 28.321,-4.971 0.568,0.526 0.863,1.716 1.236,2.42 1.127,2.124 2.044,4.356 3.186,6.475 4.123,7.652 8.186,15.337 12.282,23.002 1.284,2.404 2.553,4.814 3.853,7.209 0.431,0.796 1.469,2.047 1.251,2.98 -1.455,2.211 -4.472,4.1 -6.587,5.669 -6.524,4.839 -13.775,8.637 -21.487,11.208 -30.459,10.151 -69.325,4.83 -86.691,-24.986 -10.103,-17.345 -9.869,-37.432 -9.826,-56.847 0.041,-18.942 -0.205,-37.894 -0.209,-56.829 -6.22,-0.052 -12.439,-0.18 -18.66,-0.206 -2.094,-0.008 -5.889,0.652 -7.765,-0.242 -0.341,-5.708 -0.091,-11.499 -0.099,-17.218 -0.017,-11.747 0.068,-23.496 0.137,-35.241 z"
       opacity="1"
       fill="#252a6e"
       fill-rule="evenodd"
       id="path9"
       style="fill:#000000" />
    <path
       d="m 475.383,939.072 c 1.386,-4.052 3.405,-7.943 5.07,-11.888 4.015,-9.512 8.189,-18.953 12.278,-28.434 3.445,-7.987 6.995,-15.926 10.431,-23.916 2.021,-4.7 3.746,-9.71 6.255,-14.168 3.689,-0.406 7.499,-0.125 11.206,-0.098 2.09,0.015 4.47,-0.347 6.507,0.128 8.499,17.888 15.671,36.483 23.448,54.7 2.402,5.627 4.721,11.284 7.116,16.915 0.742,1.745 1.425,3.519 2.105,5.289 0.231,0.6 0.916,1.444 0.958,2.054 -4.078,0.103 -8.171,-0.015 -12.251,-0.045 -2.216,-0.016 -4.724,0.216 -6.9,-0.194 -2.584,-4.591 -3.867,-9.9 -6.114,-14.655 -2.087,-0.365 -4.356,-0.137 -6.472,-0.181 -3.905,-0.081 -7.806,-0.131 -11.712,-0.126 -5.568,0.006 -11.547,-0.639 -17.063,0.111 -2.084,3.316 -3.08,7.455 -4.62,11.048 -0.492,1.147 -0.807,3.239 -1.754,4.049 -6.231,0.339 -12.512,-0.114 -18.744,-10e-4 0.085,-0.196 0.17,-0.392 0.256,-0.588 z m 32.066,-30.917 c -0.072,0.186 -0.143,0.371 -0.215,0.556 7.167,-0.504 14.561,0.692 21.676,-0.05 0.087,-0.337 -0.486,-1.17 -0.617,-1.531 -0.616,-1.694 -1.387,-3.331 -2.034,-5.014 -1.7,-4.418 -3.557,-8.777 -5.353,-13.156 -0.963,-2.348 -1.715,-4.932 -3.051,-7.085 -0.573,4.088 -2.982,8.283 -4.57,12.091 -1.932,4.633 -3.346,9.831 -5.836,14.189 z"
       opacity="1"
       fill="#24296b"
       fill-rule="evenodd"
       id="path10"
       style="fill:#000000" />
    <path
       d="m 515.316,634.419 c 8.666,-0.421 17.403,-0.144 26.077,-0.071 0.767,-16.528 -0.078,-33.248 0.035,-49.796 2.847,-0.64 6.165,-0.241 9.077,-0.215 5,0.046 10.001,0.02 15.001,0.016 8.499,-0.009 16.999,-0.041 25.498,-0.062 4.726,-0.012 9.763,-0.431 14.451,0.196 0.129,12.495 0.178,25.006 0.156,37.511 -0.005,2.998 0.022,5.997 -0.015,8.994 -0.011,0.866 -0.338,2.902 0.289,3.459 5.573,-0.607 11.51,-0.036 17.123,-0.046 9.388,-0.018 18.856,-0.358 28.226,0.181 -0.723,12.196 -0.007,24.69 -0.01,36.918 0,3.499 0.014,7 -0.02,10.499 -0.016,1.612 0.292,3.653 -0.325,5.177 -11.284,0.264 -22.592,0.019 -33.88,0.044 -2.796,0.006 -5.593,0.053 -8.388,0.03 -0.702,-0.006 -2.527,-0.247 -2.952,0.361 0.812,20.436 -0.53,41.008 -0.189,61.465 0.153,9.143 0.775,19.5 10.812,23.232 6.346,2.359 13.956,0.727 19.948,-1.96 1.693,-0.759 3.37,-1.537 5.009,-2.407 0.734,-0.389 1.748,-1.093 2.6,-1.126 1.38,3.846 3.581,7.58 5.412,11.236 3.162,6.313 6.426,12.57 9.671,18.84 1.928,3.727 4.968,7.99 5.889,12.101 -0.177,0.537 -0.974,1.038 -1.391,1.423 -1.269,1.174 -2.601,2.328 -3.965,3.392 -5.649,4.409 -11.854,7.685 -18.42,10.478 -28.423,12.091 -68.515,8.054 -87.261,-18.754 -11.654,-16.666 -12.381,-35.949 -12.409,-55.537 -0.019,-12.666 -0.011,-25.331 -0.034,-37.997 -0.01,-5.499 -0.037,-10.998 -0.048,-16.498 -0.005,-2.617 0.523,-5.847 -0.134,-8.384 -8.553,-0.118 -17.15,-0.252 -25.697,-0.189 -0.647,-0.652 -0.287,-2.53 -0.298,-3.424 -0.041,-3.168 -0.068,-6.335 -0.061,-9.503 0.019,-8.666 0.02,-17.331 0.014,-25.997 -0.003,-4.378 -0.562,-9.273 0.209,-13.587 z"
       opacity="1"
       fill="#252a6e"
       fill-rule="evenodd"
       id="path11"
       style="fill:#000000" />
    <path
       d="m 568.943,860.804 c 6.842,-0.925 14.16,-0.277 21.067,-0.266 12.265,0.018 25.345,-1.511 35.954,5.858 16.138,11.21 13.141,39.389 -5.742,46.092 1.83,3.169 4.136,6.159 6.166,9.213 3.928,5.909 7.696,11.94 11.652,17.819 -1.235,0.727 -4.059,0.098 -5.493,0.082 -3.388,-0.04 -6.798,0.044 -10.178,-0.1 -1.506,-0.065 -3.259,0.27 -4.708,-0.172 -2.125,-1.658 -3.568,-5.322 -5.01,-7.586 -3.352,-5.263 -7.197,-10.51 -10.043,-16.05 -4.925,-0.424 -10.018,-0.178 -14.954,-0.023 -0.437,2.379 -0.229,4.926 -0.238,7.339 -0.022,5.511 0.312,11.141 -0.048,16.637 -6.006,0.378 -12.19,-0.01 -18.212,-0.027 -0.622,-15.509 -0.275,-31.095 -0.296,-46.619 -0.014,-10.674 -0.639,-21.549 0.083,-32.197 z m 18.565,16.187 c -0.363,7.462 -0.568,15.447 0.069,22.888 5.379,-0.48 10.961,-0.061 16.362,-0.049 3.304,0.007 6.875,0.18 9.718,-1.774 6.777,-4.658 5.666,-16.251 -1.317,-20.023 -3.026,-1.635 -6.877,-1.539 -10.224,-1.583 -4.711,-0.062 -9.688,-0.447 -14.369,0.114 -0.08,0.143 -0.16,0.285 -0.239,0.427 z"
       opacity="1"
       fill="#252a6b"
       fill-rule="evenodd"
       id="path12"
       style="fill:#000000" />
    <path
       d="m 649.698,860.737 c 12.536,-0.989 25.245,0.214 37.811,-0.238 5.182,-0.186 10.402,-0.123 15.59,-0.056 2.371,0.03 5.246,-0.311 7.534,0.269 -0.063,3.918 0.055,7.864 0.054,11.789 0,0.735 0.416,3.393 -0.166,3.873 -8.99,-0.209 -18.021,0.042 -27.016,0.037 -5.045,-0.003 -10.744,-0.722 -15.697,0.271 0.162,5.066 0.333,10.422 -0.008,15.475 0.409,0.261 1.7,0.052 2.206,0.062 2.165,0.041 4.336,-0.004 6.501,-0.002 6.999,0.009 13.999,-0.003 20.999,0.023 1.92,0.007 3.841,0.063 5.76,0.054 0.757,-0.004 2.005,-0.28 2.688,0.085 -0.472,3.617 0.161,7.7 0.089,11.372 -0.013,0.662 0.337,3.532 -0.042,3.971 -12.639,-0.248 -25.617,-0.639 -38.233,0.11 -0.806,5.149 0.161,10.637 -0.13,15.83 5.527,-0.538 11.272,-0.09 16.825,-0.119 8.921,-0.046 17.878,-0.351 26.796,-0.055 0.334,3.972 0.133,8.034 0.103,12.02 -0.007,0.793 0.373,3.521 -0.235,4.02 -4.444,0.486 -9.15,0.054 -13.623,0.054 -10.333,0 -20.666,0.043 -30.999,0.006 -5.458,-0.02 -11.232,-0.534 -16.658,-0.004 -0.714,-0.767 -0.196,-3.946 -0.213,-5.077 -0.073,-5 -0.022,-10.003 -0.025,-15.004 -0.01,-12.667 -0.009,-25.334 -0.012,-38.001 -0.002,-6.905 -0.288,-13.873 0.101,-20.765 z"
       opacity="1"
       fill="#252b6b"
       fill-rule="evenodd"
       id="path13"
       style="fill:#000000" />
    <path
       d="m 687.467,652.619 c 0.349,-3.318 0.069,-6.792 0.073,-10.128 0.008,-6.666 0.017,-13.332 0.011,-19.998 -0.016,-15.999 0.041,-31.997 0.025,-47.996 -0.008,-9.088 -0.321,-18.238 0.039,-27.317 16.833,-1.174 34.016,-0.241 50.89,-0.251 4.497,-0.003 9.146,0.391 13.617,0.109 0.328,7.453 0.079,14.999 0.096,22.466 0.034,15.5 -0.02,31 -0.028,46.499 -0.021,42.667 0.052,85.334 -0.041,128 -0.042,19.167 0.024,38.333 0.028,57.5 0.002,5.833 0.033,11.665 0.013,17.498 -0.008,2.345 -0.654,5.889 0.002,8.12 -8.173,-0.45 -16.498,-0.059 -24.688,-0.049 -13.3,0.016 -26.611,-0.133 -39.906,-0.078 -0.473,-2.406 -0.228,-5.044 -0.228,-7.494 0,-4.167 -0.012,-8.334 -0.017,-12.5 -0.016,-13.334 0.002,-26.667 0.01,-40.001 0.015,-25.168 0.158,-50.343 0.164,-75.506 0.003,-12.936 -0.479,-25.95 -0.06,-38.874 z"
       opacity="1"
       fill="#25296e"
       fill-rule="evenodd"
       id="path14"
       style="fill:#000000" />
    <path
       d="m 756.489,898.62 c 0.313,-3.326 0.069,-6.782 0.074,-10.123 0.016,-9.233 -0.357,-18.565 0.092,-27.785 5.843,-0.304 11.718,-0.046 17.567,-0.058 0.677,4.927 0.028,10.371 0.034,15.351 0.014,11 -0.018,22 -0.021,32.999 -10e-4,4.615 -0.723,9.937 0.077,14.474 9.073,-0.826 18.574,-0.052 27.692,-0.074 2.448,-0.006 4.896,-0.012 7.345,-0.019 1.133,-0.004 2.791,-0.239 3.831,0.244 -0.082,3.783 0.042,7.584 0.006,11.371 -0.013,1.373 0.322,3.221 -0.166,4.515 -12.819,0.349 -25.69,0.089 -38.516,0.08 -4.001,-0.003 -8.001,-0.009 -12.002,0.006 -1.884,0.008 -4.269,0.393 -6.087,-0.044 -0.118,-13.609 -0.394,-27.337 0.074,-40.937 z"
       opacity="1"
       fill="#262a6a"
       fill-rule="evenodd"
       id="path15"
       style="fill:#000000" />
    <path
       d="m 780.976,722.607 c 2.605,-23.206 10.757,-44.799 27.122,-61.82 8.75,-9.101 19.54,-15.899 31.109,-20.795 33.167,-14.033 75.983,-12.272 105.192,10.041 22.625,17.284 34.326,45.896 34.098,73.978 -0.053,6.46 -0.702,12.848 -2.178,19.144 -0.476,2.034 -0.718,5.203 -2.106,6.83 -1.728,0.302 -3.678,0.068 -5.433,0.067 -3.592,-0.002 -7.184,-10e-4 -10.776,-0.002 -11.668,-0.003 -23.328,-0.083 -34.998,-0.079 -17.948,0.005 -35.898,0.077 -53.846,-0.013 -7.768,-0.038 -15.946,0.858 -23.659,0.084 1.567,4.683 3.264,8.947 6.244,12.962 13.785,18.569 41.297,19.037 61.472,12.539 5.671,-1.827 11.19,-4.323 16.35,-7.303 2.614,-1.509 5.192,-3.882 7.97,-4.992 2.689,2.073 4.651,5.504 6.868,8.066 4.363,5.042 8.803,10.022 13.271,14.972 2.132,2.362 4.295,4.698 6.345,7.134 0.753,0.896 1.975,1.967 2.374,3.07 -0.318,1.685 -2.385,3.44 -3.486,4.713 -3.71,4.286 -8.147,8.03 -12.785,11.266 -18.558,12.951 -41.352,19.008 -63.863,19.165 -37.747,0.263 -75.457,-17.74 -93.772,-51.737 -4.245,-7.878 -7.355,-16.429 -9.334,-25.15 -2.384,-10.508 -3.097,-21.398 -2.179,-32.14 z m 63.453,-12.023 c -0.156,0.885 -0.262,1.765 -0.317,2.662 6.371,-0.611 12.994,-0.077 19.395,-0.138 17.406,-0.166 34.839,0.3 52.238,0.014 -0.582,-5.395 -1.543,-10.652 -4.283,-15.433 -10.421,-18.179 -36.116,-21.065 -52.556,-9.236 -7.871,5.663 -11.925,12.972 -14.477,22.131 z"
       opacity="1"
       fill="#242a6d"
       fill-rule="evenodd"
       id="path16"
       style="fill:#000000" />
    <path
       d="m 822.36,860.797 c 1.942,-0.652 4.318,-0.378 6.345,-0.385 3.689,-0.012 7.431,-0.124 11.112,0.129 0.876,6.255 0.105,13.149 0.095,19.469 -0.025,14.476 -0.387,28.989 -0.04,43.461 5.125,-0.529 10.479,-0.148 15.631,-0.145 7.676,0.003 15.378,-0.191 23.051,0.026 0.459,5.358 -0.556,10.997 0.154,16.291 -13.826,-0.695 -27.856,-0.003 -41.704,-0.043 -4.812,-0.014 -9.763,0.33 -14.557,-0.103 -0.67,-11.771 -0.198,-23.703 -0.175,-35.492 0.028,-14.389 -0.322,-28.825 0.088,-43.208 z"
       opacity="1"
       fill="#262b6b"
       fill-rule="evenodd"
       id="path17"
       style="fill:#000000" />
    <path
       d="m 882.436,894.098 c 1.018,-5.151 2.303,-10.011 4.966,-14.597 7.622,-13.126 21.942,-20.397 36.929,-20.044 8.793,0.208 17.072,2.915 23.97,8.445 1.535,1.231 2.975,2.548 4.317,3.986 0.528,0.566 1.308,1.143 1.246,1.979 -0.494,1.231 -2.031,2.102 -2.875,3.123 -2.558,3.088 -5.296,6.01 -7.987,8.967 -1.705,-0.964 -2.974,-3.301 -4.556,-4.56 -5.001,-3.982 -10.714,-5.881 -17.118,-5.563 -2.856,0.142 -5.627,0.917 -8.162,2.24 -17.512,9.144 -16.906,37.097 1.365,45.008 2.779,1.203 5.778,1.724 8.802,1.643 5.3,-0.141 10.298,-2.031 14.398,-5.377 1.713,-1.398 3.351,-4.208 5.235,-5.164 2.473,3.037 5.931,5.502 8.812,8.146 1.022,0.937 2.654,1.918 3.293,3.145 -0.961,2.359 -4.079,4.594 -6.019,6.172 -6.67,5.424 -14.639,8.464 -23.176,9.212 -4.695,0.411 -9.458,0.21 -14.04,-1.005 -20.219,-5.359 -32.207,-25.357 -29.4,-45.756 z"
       opacity="1"
       fill="#242a6b"
       fill-rule="evenodd"
       id="path18"
       style="fill:#000000" />
    <path
       d="m 962.422,928.567 c 0.401,-1.347 1.138,-2.699 2.073,-3.747 6.61,-7.409 19.232,-0.62 16.55,9.023 -2.733,9.829 -18.043,9.034 -18.929,-1.459 -0.107,-1.264 -0.057,-2.597 0.306,-3.817 z"
       opacity="1"
       fill="#252a69"
       fill-rule="evenodd"
       id="path19"
       style="fill:#000000" />
  </g>
</svg>
